HIERARCHY
ROOT Hips
{
	OFFSET 0.00000 0.00000 0.00000
	CHANNELS 6 Xposition Yposition Zposition Zrotation Yrotation Xrotation 
	JOINT LHipJoint
	{
		OFFSET 0 0 0
		CHANNELS 3 Zrotation Yrotation Xrotation
		JOINT LeftHip
		{
			OFFSET 1.37590 -1.78394 0.89329
			CHANNELS 3 Zrotation Yrotation Xrotation
			JOINT LeftKnee
			{
				OFFSET 2.47928 -6.81178 0.00000
				CHANNELS 3 Zrotation Yrotation Xrotation
				JOINT LeftAnkle
				{
					OFFSET 2.63345 -7.23535 0.00000
					CHANNELS 3 Zrotation Yrotation Xrotation
					JOINT LeftToe
					{
						OFFSET 0.23938 -0.65768 2.27012
						CHANNELS 3 Zrotation Yrotation Xrotation
						End Site
						{
							OFFSET 0.00000 -0.00000 1.18363
						}
					}
				}
			}
		}
	}
	JOINT RHipJoint
	{
		OFFSET 0 0 0
		CHANNELS 3 Zrotation Yrotation Xrotation
		JOINT RightHip
		{
			OFFSET -1.33617 -1.78394 0.89329
			CHANNELS 3 Zrotation Yrotation Xrotation
			JOINT RightKnee
			{
				OFFSET -2.56922 -7.05888 0.00000
				CHANNELS 3 Zrotation Yrotation Xrotation
				JOINT RightAnkle
				{
					OFFSET -2.56568 -7.04915 0.00000
					CHANNELS 3 Zrotation Yrotation Xrotation
					JOINT RightToe
					{
						OFFSET -0.27533 -0.75646 2.18105
						CHANNELS 3 Zrotation Yrotation Xrotation
						End Site
						{
							OFFSET -0.00000 -0.00000 1.15233
						}
					}
				}
			}
		}
	}
	JOINT lowerback
	{
		OFFSET 0 0 0
		CHANNELS 3 Zrotation Yrotation Xrotation
		JOINT Chest
		{
			OFFSET 0.06190 2.15152 -0.00935
			CHANNELS 3 Zrotation Yrotation Xrotation
			JOINT Chest2
			{
				OFFSET 0.06334 2.15332 0.00872
				CHANNELS 3 Zrotation Yrotation Xrotation
				JOINT lowerneck
				{
					OFFSET 0 0 0
					CHANNELS 3 Zrotation Yrotation Xrotation
					JOINT Neck
					{
						OFFSET -0.04202 1.66908 0.23524
						CHANNELS 3 Zrotation Yrotation Xrotation
						JOINT Head
						{
							OFFSET 0.07510 1.69357 -0.24440
							CHANNELS 3 Zrotation Yrotation Xrotation
							End Site
							{
								OFFSET 0.02556 1.71719 -0.11000
							}
						}
					}
				}
				JOINT LeftCollar
				{
					OFFSET 0 0 0
					CHANNELS 3 Zrotation Yrotation Xrotation
					JOINT LeftShoulder
					{
						OFFSET 3.67168 1.26306 -0.41342
CHANNELS 3 Zrotation Xrotation Yrotation
						JOINT LeftElbow
						{
OFFSET 0 -4.685100 -0.000000
CHANNELS 3 Zrotation Xrotation Yrotation
							JOINT LeftWrist
							{
OFFSET 0 -3.396260 -0.000000
CHANNELS 3 Zrotation Xrotation Yrotation
								JOINT lhand
								{
									OFFSET 0 0 0
CHANNELS 3 Zrotation Xrotation Yrotation
									JOINT LFingers
									{
OFFSET 0 -0.486080 -0.000000
CHANNELS 3 Zrotation Xrotation Yrotation
										End Site
										{
OFFSET 0 -0.391890 -0.000000
										}
									}
								}
								JOINT LThumb
								{
OFFSET 0 0.000000 0.000000
CHANNELS 3 Zrotation Xrotation Yrotation
									End Site
									{
OFFSET 0 -0.397870 0.397870
									}
								}
							}
						}
					}
				}
				JOINT RightCollar
				{
					OFFSET 0 0 0
					CHANNELS 3 Zrotation Yrotation Xrotation
					JOINT RightShoulder
					{
						OFFSET -3.04136 1.42992 -0.76390
CHANNELS 3 Zrotation Xrotation Yrotation
						JOINT RightElbow
						{
OFFSET 0 -5.555760 -0.000000
CHANNELS 3 Zrotation Xrotation Yrotation
							JOINT RightWrist
							{
OFFSET 0 -3.327740 -0.000000
CHANNELS 3 Zrotation Xrotation Yrotation
								JOINT rhand
								{
									OFFSET 0 0 0
CHANNELS 3 Zrotation Xrotation Yrotation
									JOINT RFingers
									{
OFFSET 0 -0.507630 -0.000000
CHANNELS 3 Zrotation Xrotation Yrotation
										End Site
										{
OFFSET 0 -0.409260 -0.000000
										}
									}
								}
								JOINT RThumb
								{
OFFSET 0 0.000000 0.000000
CHANNELS 3 Zrotation Xrotation Yrotation
									End Site
									{
OFFSET 0 -0.415510 0.415510
									}
								}
							}
						}
					}
				}
			}
		}
	}
}
MOTION
Frames: 7
Frame Time: 0.008333333333333333
33.541200 17.684900 6.588900 -73.204200 -88.613900 78.391000 0.000000 0.000000 0.000000 -19.712000 -9.333000 -4.448200 0.743000 5.506300 15.358400 0.339100 -2.676300 -10.402200 0.112200 -2.159800 -5.947400 0.000000 0.000000 0.000000 16.609000 0.509700 -33.853700 -8.607400 -16.548300 54.722100 0.492900 -14.759100 -14.135700 -0.034600 -1.200600 3.301100 -0.462300 0.710600 0.325700 -0.069000 0.925500 -2.099200 0.166600 0.464400 -2.340000 -7.118800 -3.634500 -13.091200 3.142300 -4.012100 11.505500 1.789300 -2.036000 5.835700 -0.000000 0.000000 0.000000 8.458600 -39.873800 -34.112000 45.506100 -51.014000 22.631500 18.111000 -7.532000 -27.251400 0.000000 0.000000 0.000000 -7.125000 0.000000 0.000000 -13.579500 57.914600 4.344800 -0.000000 0.000000 0.000000 -26.542800 -40.073300 19.007400 -67.158100 -57.933700 -40.355600 -12.179900 -13.363000 27.750200 0.000000 0.000000 0.000000 7.125000 0.000000 -0.000000 20.039500 57.126200 -6.120200
33.463807 17.681529 6.591099 -73.715976 -88.598436 78.941985 0.000000 0.000000 0.000000 -19.744540 -9.229223 -4.213896 0.742267 5.503588 15.350558 0.353391 -2.695282 -10.622799 0.114619 -2.182446 -6.010062 0.000000 0.000000 0.000000 16.529628 0.573461 -34.250046 -8.252682 -16.299851 53.464464 0.484985 -14.834148 -14.456778 -0.042808 -1.332960 3.665492 -0.342106 0.677547 -0.094172 -0.029351 0.886364 -1.959365 0.147325 0.442780 -1.958752 -6.938729 -3.563410 -12.446918 2.994183 -3.970765 11.067233 1.727737 -2.020536 5.580875 0.000000 0.000000 0.000000 8.161780 -39.502959 -34.382289 45.260656 -50.895345 22.440949 18.501849 -6.997285 -28.092316 0.000000 0.000000 0.000000 -7.125000 0.000000 0.000000 -13.660851 58.830417 4.673793 0.000000 0.000000 0.000000 -26.974105 -40.417904 18.570452 -67.635943 -58.022746 -40.760814 -12.703988 -12.722749 27.202366 0.000000 0.000000 0.000000 7.125000 0.000000 0.000000 19.157249 56.718494 -5.649173
33.385948 17.678390 6.593251 -72.540570 -88.589353 77.803647 0.000000 0.000000 0.000000 -19.814855 -9.210031 -3.956116 0.743397 5.507724 15.362465 0.369732 -2.673788 -10.874093 0.118248 -2.216457 -6.104257 0.000000 0.000000 0.000000 16.424825 0.601730 -34.601025 -7.880684 -16.027414 52.126295 0.481168 -14.901231 -14.678367 -0.048362 -1.418788 3.901842 -0.241336 0.632337 0.105672 0.002008 0.824451 -2.210689 0.120411 0.409282 -2.328567 -6.790052 -3.459622 -11.716514 2.852774 -3.893612 10.950351 1.676422 -1.993474 5.412078 0.000000 0.000000 0.000000 7.824298 -38.549198 -34.690679 45.161884 -50.847535 22.364234 18.759906 -6.387347 -28.875848 0.000000 0.000000 0.000000 -7.125000 0.000000 0.000000 -13.868985 59.659413 5.024725 0.000000 0.000000 0.000000 -27.174990 -40.226167 18.435514 -68.272383 -58.137642 -41.301149 -12.758202 -12.343100 26.766784 0.000000 0.000000 0.000000 7.125000 0.000000 0.000000 18.829738 56.318707 -5.359752
33.307882 17.675028 6.594383 -70.784564 -88.583433 76.093829 0.000000 0.000000 0.000000 -19.890304 -9.210421 -3.698066 0.743987 5.509905 15.368771 0.386612 -2.653557 -11.129302 0.121638 -2.248225 -6.192219 0.000000 0.000000 0.000000 16.311199 0.634558 -34.897023 -7.483419 -15.722726 50.674556 0.484928 -14.975149 -14.772871 -0.051936 -1.470641 4.044718 -0.166663 0.578606 0.404770 0.036856 0.750788 -2.444837 0.110454 0.370801 -2.736818 -6.668854 -3.371711 -11.336056 2.749441 -3.813261 10.979316 1.636486 -1.961232 5.349078 0.000000 0.000000 0.000000 7.516144 -37.692209 -34.944194 45.154458 -50.843889 22.358443 19.012692 -5.700696 -29.575237 0.000000 0.000000 0.000000 -7.125000 0.000000 0.000000 -14.044059 60.405523 5.337399 0.000000 0.000000 0.000000 -27.396031 -40.076718 18.291575 -68.874894 -58.244617 -41.812987 -12.711777 -12.084471 26.448679 0.000000 0.000000 0.000000 7.125000 0.000000 0.000000 18.683159 56.007575 -5.173762
33.229976 17.670704 6.592844 -70.069118 -88.576178 75.452405 0.000000 0.000000 0.000000 -19.921305 -9.133028 -3.475487 0.740249 5.496273 15.329562 0.401783 -2.699143 -11.347703 0.122518 -2.256433 -6.214792 0.000000 0.000000 0.000000 16.213065 0.734377 -35.115130 -7.044859 -15.368301 49.041608 0.502737 -15.079733 -14.679061 -0.054281 -1.502888 4.133690 -0.132217 0.520707 0.015093 0.093875 0.680650 -2.029582 0.157871 0.337235 -2.090191 -6.573139 -3.376914 -12.029442 2.738154 -3.779549 10.904854 1.611348 -1.932942 5.437904 0.000000 0.000000 0.000000 7.349558 -37.994379 -34.991392 45.166477 -50.849752 22.367824 19.456089 -4.923761 -30.136849 0.000000 0.000000 0.000000 -7.125000 0.000000 0.000000 -13.934712 61.062630 5.513366 0.000000 0.000000 0.000000 -28.026608 -40.868090 17.657700 -69.141592 -58.290422 -42.039816 -13.119336 -11.749394 26.273373 0.000000 0.000000 0.000000 7.125000 0.000000 0.000000 18.167646 55.922633 -4.985850
33.152004 17.666513 6.592102 -69.152215 -88.575965 74.605669 0.000000 0.000000 0.000000 -19.977156 -9.094306 -3.244604 0.738372 5.489352 15.309688 0.418083 -2.701938 -11.581651 0.125191 -2.280522 -6.281484 0.000000 0.000000 0.000000 16.099317 0.827552 -35.353968 -6.633541 -15.011152 47.466798 0.513038 -15.135612 -14.614421 -0.058885 -1.564637 4.303924 -0.082423 0.467992 -0.073658 0.133684 0.612506 -1.941166 0.173263 0.303004 -1.949070 -6.458687 -3.334876 -12.102040 2.681686 -3.728627 10.846007 1.578901 -1.905849 5.425868 0.000000 0.000000 0.000000 7.118588 -37.728319 -35.124702 45.206802 -50.869369 22.399065 19.681550 -4.317920 -30.712614 0.000000 0.000000 0.000000 -7.125000 0.000000 0.000000 -14.091009 61.681333 5.784746 0.000000 0.000000 0.000000 -28.429348 -41.144588 17.309269 -69.544235 -58.358021 -42.382523 -13.344905 -11.438304 26.019662 0.000000 0.000000 0.000000 7.125000 0.000000 0.000000 17.792728 55.725334 -4.792688
33.073826 17.662097 6.590926 -68.248013 -88.581206 73.776642 0.000000 0.000000 0.000000 -20.038309 -9.060759 -3.013778 0.736011 5.480858 15.285249 0.434619 -2.697227 -11.816168 0.127811 -2.304339 -6.347476 0.000000 0.000000 0.000000 15.976411 0.939075 -35.565102 -6.219983 -14.632903 45.848550 0.525307 -15.179204 -14.482775 -0.064159 -1.633119 4.492780 -0.041576 0.417042 -0.101689 0.170291 0.545919 -1.898816 0.189409 0.269539 -1.889546 -6.349178 -3.291944 -12.151137 2.630814 -3.679150 10.819999 1.549078 -1.879951 5.420487 0.000000 0.000000 0.000000 6.881820 -37.416398 -35.253015 45.293351 -50.911303 22.466212 19.853290 -3.776152 -31.218396 0.000000 0.000000 0.000000 -7.125000 0.000000 0.000000 -14.266565 62.218282 6.039334 0.000000 0.000000 0.000000 -28.795347 -41.330776 17.022109 -69.940896 -58.423415 -42.720321 -13.539926 -11.150505 25.789462 0.000000 0.000000 0.000000 7.125000 0.000000 0.000000 17.464239 55.543678 -4.622031
